<?xml version="1.0" encoding="UTF-8"?>
<svg id="Layer_2" data-name="Layer 2" xmlns="http://www.w3.org/2000/svg" viewBox="0 0 600.58 787.44">
  <defs>
    <style>
      .cls-1 {
        fill: #fff;
        stroke-width: 0px;
      }
    </style>
  </defs>
  <g id="Layer_1-2" data-name="Layer 1">
    <g>
      <path class="cls-1" d="M600.58,712.28c-1.81,2.98-2.44,4.57-3.53,5.72-10.97,11.6-21.38,23.84-33.2,34.51-18.39,16.61-40.4,26.76-64.61,32.11-17.46,3.85-35.13,2.75-52.77,2.41-21.01-.4-40.7-5.8-59.5-15.14-12.63-6.28-25.26-11.17-37.9-14.69-.62-.18-1.23-.34-1.85-.51-1.19-.32-2.38-.63-3.57-.92-.9-.23-1.81-.44-2.71-.65-.74-.18-1.49-.35-2.23-.5-1.97-.44-3.94-.84-5.91-1.21-.9-.17-1.8-.33-2.7-.48-.6-.11-1.19-.2-1.79-.3-3.43-.55-6.86-1-10.29-1.36-.64-.06-1.29-.13-1.93-.19-1.21-.11-2.43-.21-3.65-.29-.56-.05-1.13-.08-1.7-.12-.19-.01-.38-.02-.58-.03-.75-.05-1.51-.09-2.26-.12-.77-.04-1.54-.07-2.31-.09-.66-.03-1.33-.05-1.99-.05-1.1-.03-2.21-.04-3.31-.05-1.1.01-2.21.02-3.31.05-.66,0-1.33.02-1.99.05-.77.02-1.54.05-2.31.09-.75.03-1.51.07-2.26.12-.2.01-.39.02-.58.03-.57.04-1.14.07-1.7.12-1.22.08-2.44.18-3.65.29-.64.06-1.29.13-1.93.19-3.43.36-6.86.81-10.29,1.36-.6.1-1.19.19-1.79.3-.9.15-1.8.31-2.7.48-1.97.37-3.94.77-5.91,1.21-.74.15-1.49.32-2.23.5-.9.21-1.81.42-2.71.65-1.19.29-2.38.6-3.57.92-.62.17-1.23.33-1.85.51-12.64,3.52-25.27,8.41-37.9,14.69-18.8,9.34-38.49,14.74-59.5,15.14-17.64.34-35.31,1.44-52.77-2.41-24.21-5.35-46.22-15.5-64.61-32.11-11.82-10.67-22.23-22.91-33.2-34.51-1.09-1.15-1.72-2.74-3.53-5.72,4.57-.39,7.97-.84,11.37-.94,13.32-.38,26.71.17,39.93-1.15,24.06-2.4,45.62-11.86,65.13-26.02,26.13-18.96,45.68-43.59,60.99-71.71,22.48-41.3,34.34-85.73,38.24-132.41,4.79-57.36-2.63-112.99-24.35-166.44-13.56-33.38-32.25-63.51-59.01-88.11-22.34-20.53-48-34.66-78.45-38.78-7.56-1.02-15.27-.92-22.92-1.23-3.54-.14-7.09-.02-12.66-.02,2.64-3.79,3.8-6.04,5.49-7.78,34.49-35.69,76.62-50.58,125.81-45.48,21.06,2.19,40.93,8.4,59.87,18.17,2.19,1.13,4.38,2.22,6.57,3.26,1.19.57,2.37,1.13,3.56,1.67,1.35.62,2.7,1.22,4.06,1.81,8.56,3.72,17.11,6.81,25.67,9.27.95.28,1.9.54,2.85.8s1.9.51,2.85.75c.9.23,1.8.46,2.7.67.95.23,1.9.45,2.84.66.62.14,1.23.28,1.85.4,6.01,1.29,12.01,2.28,18.02,2.95.74.09,1.48.17,2.22.24,2.1.21,4.2.38,6.3.52,1.89.13,3.79.22,5.68.28.95.03,1.89.05,2.84.07.77.02,1.54.02,2.31.02.18.01.35.01.53.01s.35,0,.53-.01c.77,0,1.54,0,2.31-.02.95-.02,1.89-.04,2.84-.07,1.89-.06,3.79-.15,5.68-.28,2.1-.14,4.2-.31,6.3-.52.74-.07,1.48-.15,2.22-.24,6.01-.67,12.01-1.66,18.02-2.95.62-.12,1.23-.26,1.85-.4.94-.21,1.89-.43,2.84-.66.9-.21,1.8-.44,2.7-.67.95-.24,1.9-.49,2.85-.75.95-.26,1.9-.52,2.85-.8,8.56-2.46,17.11-5.55,25.67-9.27,1.36-.59,2.71-1.19,4.06-1.81,1.19-.54,2.37-1.1,3.56-1.67,2.19-1.04,4.38-2.13,6.57-3.26,18.94-9.77,38.81-15.98,59.87-18.17,49.19-5.1,91.32,9.79,125.81,45.48,1.69,1.74,2.85,3.99,5.49,7.78-5.57,0-9.12-.12-12.66.02-7.65.31-15.36.21-22.92,1.23-30.45,4.12-56.11,18.25-78.45,38.78-26.76,24.6-45.45,54.73-59.01,88.11-21.72,53.45-29.14,109.08-24.35,166.44,3.9,46.68,15.76,91.11,38.24,132.41,15.31,28.12,34.86,52.75,60.99,71.71,19.51,14.16,41.07,23.62,65.13,26.02,13.22,1.32,26.61.77,39.93,1.15,3.4.1,6.8.55,11.37.94Z"/>
      <path class="cls-1" d="M307.96,155.03h-15.34c-3.26-8-11.68-143.7-9.52-154.04,5.64-.75,11.32-1.03,17.19-.99,5.87-.04,11.55.24,17.19.99,2.16,10.34-6.26,146.04-9.52,154.04Z"/>
    </g>
  </g>
</svg>