<?xml version="1.0" encoding="UTF-8"?>
<svg id="Lag_1" data-name="Lag 1" xmlns="http://www.w3.org/2000/svg" version="1.1" viewBox="0 0 300 78">
  <defs>
    <style>
      .cls-1 {
        fill: #222;
        stroke-width: 0px;
      }
    </style>
  </defs>
  <path class="cls-1" d="M0,75.7V1.2h30.6c4.7,0,8.9.9,12.5,2.8,3.6,1.8,6.4,4.5,8.5,7.9,2,3.4,3.1,7.5,3.1,12.1v1.4c0,4.6-1.1,8.6-3.2,12-2.1,3.4-5,6.1-8.6,7.9-3.6,1.9-7.7,2.8-12.3,2.8H13.5v27.6H0ZM13.5,35.9h15.8c3.5,0,6.3-1,8.5-2.9,2.2-1.9,3.3-4.5,3.3-7.9v-1.1c0-3.3-1.1-5.9-3.3-7.8-2.2-1.9-5-2.8-8.5-2.8h-15.8v22.5h0ZM117.3,75.7V23h12.7v7.1h1.8c.9-1.9,2.6-3.7,5-5.4,2.4-1.7,6-2.6,10.9-2.6s7.8.9,10.9,2.8c3.1,1.8,5.5,4.4,7.2,7.7,1.7,3.3,2.6,7.2,2.6,11.6v31.5h-12.9v-30.6c0-4.1-1-7.2-3.1-9.2-2-2-4.9-3-8.7-3s-7.5,1.4-9.9,4.2c-2.4,2.8-3.6,6.8-3.6,11.9v26.7h-12.9,0ZM197.3,75.7c-3.4,0-6.2-1-8.3-3.1-2.1-2.1-3.2-4.9-3.2-8.5v-30.5h-12.8v-10.6h10.5c1.3,0,2.3-1,2.3-2.3V6.3h12.9v16.7h14.9v10.6h-14.9v28.2c0,2.1,1,3.2,3.1,3.2h10.4v10.6h-14.9ZM229.9,16.6c-2.4,0-4.3-.8-6-2.3-1.6-1.5-2.4-3.5-2.4-6s.8-4.5,2.4-6C225.6.8,227.6,0,229.9,0s4.5.8,6.1,2.3c1.6,1.5,2.4,3.5,2.4,6s-.8,4.5-2.4,6c-1.6,1.5-3.6,2.3-6.1,2.3ZM223.6,75.7V23h12.9v52.7h-12.9ZM295.7,65.2c-2,0-3-1.1-3-3.2v-20.2c0-6.5-2-11.5-6.1-15-4-3.5-9.6-5.2-16.6-5.2s-8.3.7-11.5,2.1c-3.2,1.4-5.7,3.2-7.6,5.5-1.7,2.1-3.1,4.4-3.9,6.8l12,3.4c.6-2,1.7-3.7,3.1-5,1.7-1.6,4.3-2.3,7.8-2.3s6.1.8,7.7,2.5c1.6,1.7,2.5,3.8,2.5,6.4v3.1h-15c-3.9,0-7.5.6-10.6,1.8-3.1,1.2-5.5,3-7.3,5.5s-2.6,5.5-2.6,9.1.9,6.6,2.6,9.1c1.8,2.5,4.1,4.4,7.1,5.7,3,1.3,6.4,2,10.2,2s6.6-.5,8.8-1.6c2.1-1.1,3.8-2.3,4.8-3.7,1.1-1.4,1.8-2.5,2-3.5h2v.2c0,2.1.8,3.8,2.5,5.1,1.7,1.3,3.8,1.9,6.4,1.9h8.8v-10.5h-4.3ZM280.2,54.6c0,3.7-1.2,6.6-3.7,8.8-2.5,2.2-5.7,3.3-9.6,3.3s-5.3-.6-6.9-1.9c-1.6-1.2-2.4-2.9-2.4-4.9s.8-3.6,2.2-4.7c1.5-1.1,3.6-1.6,6.2-1.6h14v1.1h0ZM106,34.4c-2.1-4-5.1-7.2-9-9.5-3.8-2.3-8.3-3.4-13.6-3.4s-9.9,1.1-13.9,3.4c-4,2.2-7.1,5.4-9.3,9.5-2.2,4.1-3.3,8.9-3.3,14.3v1.3c0,5.5,1.1,10.3,3.3,14.4s5.3,7.2,9.4,9.5c4,2.2,8.7,3.4,14,3.4s8.9-.8,12-2.3c3.1-1.5,5.7-3.4,7.6-5.5,1.8-2,3.1-3.9,4.1-5.7l-11-4.7c-.9,1.6-2.1,3.1-3.6,4.5-1.9,1.7-4.8,2.6-8.6,2.6s-7.1-1.2-9.8-3.6c-2.7-2.4-4.1-5.5-4.2-9.4h39.1v-4.5c0-5.4-1.1-10.1-3.2-14.2h0ZM70.1,43.4c.5-3.3,1.9-5.9,4.1-7.8,2.2-2,5.3-2.9,9.1-2.9s6.6,1,8.9,2.9c2.3,2,3.6,4.6,3.9,7.8h-26,0Z"/>
</svg>
